<?xml version="1.0" encoding="UTF-8"?>
<svg id="Layer_1" xmlns="http://www.w3.org/2000/svg" version="1.1" viewBox="0 0 256 256">
  <!-- Generator: Adobe Illustrator 29.6.1, SVG Export Plug-In . SVG Version: 2.1.1 Build 9)  -->
  <defs>
    <style>
      .st0 {
        fill: #6bdddd;
      }

      .st1 {
        fill: #b9befc;
      }

      .st2 {
        fill: #6bb2dc;
      }

      .st3 {
        fill: #3762cc;
      }

      .st4 {
        fill: #e0ebfc;
      }

      .st5 {
        fill: #a4c9ff;
      }

      .st6 {
        fill: #ffea92;
      }

      .st7 {
        fill: #4671c6;
      }

      .st8 {
        fill: #1056a2;
      }
    </style>
  </defs>
  <path class="st7" d="M128,249H20.02c-2.59,0-4.69-2.1-4.69-4.7V105.1c0-2.59,2.1-4.69,4.69-4.69h99.59c4.63,0,8.39,3.76,8.39,8.39v140.2Z"/>
  <path class="st7" d="M128,249h107.98c2.59,0,4.7-2.1,4.7-4.7V105.1c0-2.59-2.1-4.69-4.7-4.69h-99.59c-4.63,0-8.39,3.76-8.39,8.39,0,0,0,140.2,0,140.2Z"/>
  <path class="st8" d="M128,251H20.02c-3.69,0-6.69-3-6.69-6.7V105.1c0-3.69,3-6.69,6.69-6.69h99.59c5.73,0,10.39,4.66,10.39,10.39v140.2c0,1.1-.9,2-2,2ZM20.02,102.41c-1.49,0-2.69,1.21-2.69,2.69v139.2c0,1.49,1.21,2.7,2.69,2.7h105.98V108.8c0-3.52-2.87-6.39-6.39-6.39H20.02Z"/>
  <path class="st8" d="M235.98,251h-107.98c-1.1,0-2-.9-2-2V108.8c0-5.73,4.66-10.39,10.39-10.39h99.59c3.69,0,6.7,3,6.7,6.69v139.2c0,3.69-3,6.7-6.7,6.7ZM130,247h105.98c1.49,0,2.7-1.21,2.7-2.7V105.1c0-1.49-1.21-2.69-2.7-2.69h-99.59c-3.52,0-6.39,2.87-6.39,6.39v138.2h0Z"/>
  <path class="st1" d="M221.9,92.66v7.75H34.1v-7.75c-7.2.78-7.61,7.75-7.61,7.75v140.85h203.02V100.41s-.41-6.96-7.61-7.75Z"/>
  <path class="st8" d="M229.51,243.25H26.49c-1.1,0-2-.9-2-2V100.41s0-.08,0-.12c.18-2.99,2.37-8.85,9.39-9.62.57-.07,1.13.12,1.55.5s.66.92.66,1.49v5.75h183.8v-5.75c0-.57.24-1.11.66-1.49.42-.38.99-.56,1.55-.5,7.02.76,9.22,6.62,9.39,9.62,0,.04,0,.08,0,.12v140.85c0,1.1-.9,2-2,2ZM28.49,239.25h199.02V100.48c-.05-.59-.48-3.86-3.61-5.26v5.18c0,1.1-.9,2-2,2H34.1c-1.1,0-2-.9-2-2v-5.18c-3.19,1.42-3.57,4.78-3.61,5.25v138.78h0Z"/>
  <path class="st4" d="M128,241.25H34.1V92.66h86.18c4.26,0,7.72,3.45,7.72,7.72v140.88Z"/>
  <path class="st4" d="M128,241.25h93.9V92.66h-86.18c-4.26,0-7.72,3.45-7.72,7.72v140.88Z"/>
  <path class="st1" d="M209.54,120.23h-66.67c-1.82,0-3.29-1.47-3.29-3.29h0c0-1.82,1.47-3.29,3.29-3.29h66.67c1.82,0,3.29,1.47,3.29,3.29h0c0,1.81-1.47,3.29-3.29,3.29Z"/>
  <path class="st1" d="M209.54,139.01h-66.67c-1.82,0-3.29-1.47-3.29-3.29h0c0-1.82,1.47-3.29,3.29-3.29h66.67c1.82,0,3.29,1.47,3.29,3.29h0c0,1.81-1.47,3.29-3.29,3.29Z"/>
  <path class="st1" d="M209.54,195.35h-66.67c-1.82,0-3.29-1.47-3.29-3.29h0c0-1.82,1.47-3.29,3.29-3.29h66.67c4.37,0,4.38,6.57,0,6.57Z"/>
  <path class="st1" d="M209.54,214.13h-66.67c-1.82,0-3.29-1.47-3.29-3.29h0c0-1.82,1.47-3.29,3.29-3.29h66.67c4.37,0,4.38,6.57,0,6.57Z"/>
  <path class="st1" d="M114.39,139.01h-31.22c-1.82,0-3.29-1.47-3.29-3.29h0c0-1.82,1.47-3.29,3.29-3.29h31.22c1.82,0,3.29,1.47,3.29,3.29h0c0,1.81-1.47,3.29-3.29,3.29Z"/>
  <path class="st1" d="M114.39,157.79H47.72c-1.81,0-3.29-1.47-3.29-3.29h0c0-1.82,1.47-3.29,3.29-3.29h66.67c1.82,0,3.29,1.47,3.29,3.29h0c0,1.81-1.47,3.29-3.29,3.29Z"/>
  <path class="st1" d="M73.54,139.01h-27.23c-1.04,0-1.88-.84-1.88-1.88v-21.6c0-1.04.84-1.88,1.88-1.88h27.23c1.04,0,1.88.84,1.88,1.88v21.6c0,1.04-.84,1.88-1.88,1.88Z"/>
  <path class="st1" d="M210.94,176.57h-69.48c-1.04,0-1.88-.84-1.88-1.88v-21.6c0-1.04.84-1.88,1.88-1.88h69.48c1.04,0,1.88.84,1.88,1.88v21.6c0,1.04-.84,1.88-1.88,1.88Z"/>
  <polygon class="st0" points="202.03 58.89 170.2 130.1 87.7 130.1 55.87 58.89 202.03 58.89"/>
  <path class="st8" d="M128,243.25H34.1c-1.1,0-2-.9-2-2V92.66c0-1.1.9-2,2-2h86.18c5.36,0,9.72,4.36,9.72,9.72v140.88c0,1.1-.9,2-2,2ZM36.1,239.25h89.9V100.38c0-3.15-2.56-5.72-5.72-5.72H36.1v144.59Z"/>
  <path class="st8" d="M221.9,243.25h-93.9c-1.1,0-2-.9-2-2V100.38c0-5.36,4.36-9.72,9.72-9.72h86.18c1.1,0,2,.9,2,2v148.59c0,1.1-.9,2-2,2ZM130,239.25h89.9V94.66h-84.18c-3.15,0-5.72,2.56-5.72,5.72v138.88h0Z"/>
  <path class="st7" d="M177.55,113.65h-34.68c-1.82,0-3.29,1.47-3.29,3.29s1.47,3.29,3.29,3.29h31.75l2.94-6.57Z"/>
  <path class="st6" d="M170.2,133.35c-.44,0-.89-.09-1.33-.28-1.64-.73-2.38-2.66-1.64-4.3l31.83-71.21c.73-1.64,2.65-2.38,4.3-1.64,1.64.73,2.38,2.66,1.64,4.3l-31.83,71.21c-.54,1.21-1.73,1.93-2.97,1.93Z"/>
  <path class="st1" d="M99.8,215.65h-40.67c-1.8,0-3.25-1.46-3.25-3.25v-40.67c0-1.8,1.46-3.25,3.25-3.25h40.67c1.8,0,3.25,1.46,3.25,3.25v40.67c0,1.8-1.46,3.25-3.25,3.25Z"/>
  <path class="st1" d="M120.39,233.51H34.1c-7.2.78-7.61,7.75-7.61,7.75h101.51s-.41-6.96-7.61-7.75Z"/>
  <path class="st1" d="M221.9,233.51h-86.28c-7.2.78-7.61,7.75-7.61,7.75h101.51s-.41-6.96-7.61-7.75Z"/>
  <path class="st8" d="M128,243.25H26.49c-.55,0-1.08-.23-1.46-.63-.38-.4-.57-.94-.54-1.49.18-2.99,2.37-8.85,9.39-9.62.07,0,.14-.01.22-.01h86.28c.07,0,.14,0,.22.01,7.02.76,9.22,6.62,9.39,9.62.03.55-.16,1.09-.54,1.49-.38.4-.91.63-1.46.63ZM29.03,239.25h96.44c-.65-1.53-2.08-3.37-5.19-3.75H34.22c-3.11.37-4.54,2.21-5.19,3.75Z"/>
  <path class="st8" d="M229.51,243.25h-101.51c-.55,0-1.08-.23-1.46-.63-.38-.4-.57-.94-.54-1.49.18-2.99,2.37-8.85,9.39-9.62.07,0,.14-.01.22-.01h86.28c.07,0,.15,0,.22.01,7.02.76,9.22,6.62,9.39,9.62.03.55-.16,1.09-.54,1.49-.38.4-.91.63-1.46.63ZM130.54,239.25h96.44c-.65-1.53-2.08-3.37-5.19-3.75h-86.06c-3.11.37-4.54,2.21-5.19,3.75Z"/>
  <path class="st7" d="M114.39,120.23h-31.22c-1.82,0-3.29-1.47-3.29-3.29h0c0-1.82,1.47-3.29,3.29-3.29h31.22c1.82,0,3.29,1.47,3.29,3.29h0c0,1.81-1.47,3.29-3.29,3.29Z"/>
  <path class="st6" d="M84.73,131.43l-31.83-71.21c-.73-1.64,0-3.56,1.64-4.3,1.65-.73,3.56,0,4.3,1.64l31.83,71.21c.73,1.64,0,3.57-1.64,4.3-1.65.74-3.57,0-4.3-1.64Z"/>
  <path class="st4" d="M170.34,78.57c-2.25-1.28-40.13-22.9-42.34-24.16-2.21,1.26-40.1,22.88-42.34,24.16h0c.22.37.53.69.92.91,36.38,20.76,28.07,16.01,38.96,22.23.76.44,1.62.65,2.47.65s1.7-.22,2.47-.65c10.89-6.21,2.58-1.47,38.96-22.23.39-.22.7-.54.91-.91h0Z"/>
  <path class="st3" d="M128,104.36c-1.2,0-2.39-.31-3.46-.91l-38.96-22.23c-.69-.4-1.26-.96-1.65-1.64-.27-.46-.34-1.01-.2-1.52s.48-.95.94-1.22l42.34-24.16c.61-.35,1.37-.35,1.98,0l42.34,24.16c.46.26.8.7.94,1.22s.07,1.06-.2,1.53c-.4.68-.97,1.25-1.65,1.64l-38.96,22.23c-1.07.61-2.26.91-3.46.91ZM89.35,78.77l37.17,21.21c.91.52,2.04.52,2.96,0l37.17-21.21-38.65-22.05-38.65,22.05Z"/>
  <path class="st4" d="M170.34,31.77h0c-.22-.37-.53-.69-.92-.91l-38.89-22.19c-.79-.45-1.66-.67-2.54-.67v46.42l42.34,24.16c.22-.38.34-.81.34-1.25v-44.3c0-.45-.12-.88-.34-1.25Z"/>
  <path class="st2" d="M170.34,31.77h0c-.22-.37-.53-.69-.92-.91l-38.89-22.19c-.79-.45-1.66-.67-2.54-.67v46.42l42.34,24.16c.22-.38.34-.81.34-1.25v-44.3c0-.45-.12-.88-.34-1.25Z"/>
  <path class="st5" d="M85.66,31.77h0c.22-.37.53-.69.92-.91l38.89-22.19c.79-.45,1.66-.67,2.54-.67v46.42l-42.34,24.16c-.22-.38-.34-.81-.34-1.25v-44.3c0-.45.12-.88.34-1.25Z"/>
  <path class="st4" d="M128.73,79.08c-.07-.07-.12-.16-.18-.24.06.08.11.17.18.24Z"/>
  <path class="st8" d="M170.34,80.57c-.34,0-.68-.08-.99-.26l-42.34-24.16c-.62-.36-1.01-1.02-1.01-1.74V8c0-1.1.9-2,2-2,1.24,0,2.46.32,3.53.94l38.88,22.18c.69.39,1.26.96,1.65,1.64h0c.4.69.61,1.47.61,2.26v44.29c0,.79-.21,1.57-.61,2.26-.37.64-1.04.99-1.73.99ZM130,53.25l38.68,22.07v-42.3c0-.09-.02-.17-.07-.25-.04-.07-.11-.14-.18-.18l-38.43-21.93v42.58Z"/>
  <path class="st8" d="M85.66,80.57c-.69,0-1.36-.36-1.73-1-.4-.69-.61-1.47-.61-2.26v-44.3c0-.79.21-1.57.61-2.26h0c.4-.68.97-1.25,1.66-1.64L124.47,6.93c1.07-.61,2.3-.93,3.53-.93,1.1,0,2,.9,2,2v46.42c0,.72-.38,1.38-1.01,1.74l-42.34,24.16c-.31.18-.65.26-.99.26ZM126,10.67l-38.43,21.93c-.07.04-.14.1-.18.18h0c-.04.08-.07.16-.07.25v42.3l38.68-22.07V10.67ZM85.66,31.77h.01-.01Z"/>
  <path class="st8" d="M128,104.36c-1.21,0-2.4-.32-3.46-.92l-38.96-22.23c-.69-.39-1.26-.96-1.65-1.64-.4-.69-.61-1.47-.61-2.26v-44.3c0-.79.21-1.58.61-2.26.55-.95,1.77-1.27,2.72-.73l42.34,24.16c.62.36,1.01,1.02,1.01,1.74v46.44c0,1.11-.9,2-2,2ZM87.32,35.02v42.3c0,.11.04.2.07.25.04.07.1.13.18.18l38.43,21.93v-42.59l-38.68-22.07Z"/>
  <path class="st8" d="M128,104.36c-1.1,0-2-.9-2-2v-46.44c0-.72.39-1.38,1.01-1.74l42.34-24.16c.95-.54,2.17-.22,2.72.73.4.69.61,1.47.61,2.26v44.3c0,.79-.21,1.57-.61,2.26-.4.68-.96,1.25-1.65,1.64l-38.96,22.23c-1.05.6-2.25.92-3.46.92ZM130,57.09v42.59l38.44-21.93c.07-.04.13-.1.18-.18.04-.07.07-.16.07-.25v-42.3l-38.68,22.07Z"/>
</svg>