<?xml version="1.0" encoding="UTF-8"?>
<svg id="_Слой_1" xmlns="http://www.w3.org/2000/svg" version="1.1" viewBox="0 0 340 340">
  <!-- Generator: Adobe Illustrator 29.6.1, SVG Export Plug-In . SVG Version: 2.1.1 Build 9)  -->
  <defs>
    <style>
      .st0 {
        fill: #f4914e;
      }

      .st1 {
        fill: #a3aed0;
      }

      .st2 {
        fill: #b8c1dd;
      }

      .st3 {
        fill: #ffc676;
      }

      .st4 {
        fill: #fff;
      }

      .st5 {
        fill: #d36f74;
      }

      .st6 {
        fill: #cbd6ea;
      }

      .st7 {
        fill: #383e51;
      }

      .st8 {
        fill: #1f2358;
      }
    </style>
  </defs>
  <path class="st4" d="M170,300.09s5.46-42.22,56.35-53.59c50.89-11.37,69.59-29.69,69.59-29.69,0,0,3.47,42.6-25.25,59.18l-100.69,24.1Z"/>
  <path class="st4" d="M33.68,245.25s74.57-22.78,134.36,53.18l-112.21-25.47s-5.13-18.15-22.16-27.72h0Z"/>
  <path class="st4" d="M303.06,274.88c-90.74-12.13-133.06,23.56-133.06,23.56,0,0-42.32-35.69-133.06-23.56,0,0,3.03,26.99-5.36,41.05h276.85c-8.4-14.07-5.36-41.05-5.36-41.05h-.01Z"/>
  <path class="st4" d="M265.91,110.8c0-55.67-45.14-100.8-100.81-100.79s-100.8,45.14-100.79,100.81c0,49.58,36.07,91.8,85.04,99.55l12.09,41.98,13.78-41.25c51.49-5.2,90.69-48.54,90.69-100.3h0Z"/>
  <path class="st6" d="M144.43,150.93h39.12l-.7,10.15c-.85,2.33-1.03,4.86-.5,7.29l-.12,1.78c-.33,5.18-4.03,9.52-9.09,10.65-6.03,1.32-12.27,1.32-18.29,0-5.06-1.14-8.77-5.48-9.09-10.65l-.11-1.65c.85-1.74.52-4.26-.5-7.25l-.7-10.31h-.02Z"/>
  <path class="st3" d="M202.88,102.47c0-21.48-17.4-38.91-38.88-38.92-21.48,0-38.91,17.4-38.92,38.88,0,9.45,3.43,18.57,9.66,25.68,3.98,4.61,6.77,10.14,8.11,16.08l1.58,6.74c12.84,3.19,26.27,3.19,39.12,0l1.58-6.74c1.4-6.02,4.25-11.61,8.29-16.28,6.12-7.06,9.49-16.09,9.47-25.43h0Z"/>
  <path class="st1" d="M145.14,161.24l.5,7.25c6.14,1.15,12.37,1.74,18.62,1.74,6.08.02,12.15-.61,18.1-1.87l.5-7.29c-15.85,3.92-31.5,1.47-37.72.17h0Z"/>
  <path class="st0" d="M164.32,121.12h-.36c-3.38-.14-6.26-2.51-7.04-5.8l-1.74-7.22c-.14-.6-.74-.97-1.34-.82-.34.08-.62.32-.76.64l-.95,2.16c-1.25,2.86-4.08,4.71-7.21,4.71h-3.35c-1.53,0-2.78-1.24-2.78-2.78s1.24-2.78,2.78-2.78h3.35c.92,0,1.75-.54,2.12-1.39l.94-2.16c1.48-3.37,5.41-4.91,8.78-3.43,1.91.84,3.32,2.52,3.81,4.54l1.74,7.22c.26,1.1,1.37,1.77,2.46,1.51.68-.16,1.23-.66,1.45-1.33l2.76-8.07c1.09-3.19,4.56-4.89,7.74-3.8,1.7.58,3.06,1.88,3.71,3.56l.23.59c.66,1.72,2.32,2.85,4.16,2.84h.62c1.53.03,2.75,1.3,2.73,2.83-.03,1.49-1.23,2.7-2.73,2.73h-.62c-4.13.02-7.85-2.52-9.34-6.38l-.23-.59c-.07-.22-.27-.36-.5-.35h-.02c-.23,0-.44.14-.5.37l-2.76,8.07c-1.03,3.09-3.93,5.16-7.19,5.14h.04Z"/>
  <path class="st3" d="M106.06,114.9h-9.11c-1.93,0-3.5-1.57-3.5-3.5s1.57-3.5,3.5-3.5h9.11c1.93,0,3.5,1.57,3.5,3.5s-1.57,3.5-3.5,3.5Z"/>
  <path class="st3" d="M163.99,47.81c-1.93,0-3.5-1.57-3.5-3.5v-9.11c0-1.93,1.57-3.5,3.5-3.5s3.5,1.57,3.5,3.5v9.1c0,1.93-1.56,3.5-3.49,3.51h0Z"/>
  <path class="st3" d="M230.01,114.9h-9.11c-1.93,0-3.5-1.57-3.5-3.5s1.57-3.5,3.5-3.5h9.11c1.93,0,3.5,1.57,3.5,3.5s-1.57,3.5-3.5,3.5Z"/>
  <path class="st3" d="M116.33,71.59c-.93,0-1.82-.37-2.47-1.03l-6.44-6.44c-1.35-1.38-1.33-3.6.05-4.95,1.36-1.33,3.54-1.33,4.9,0l6.44,6.44c1.37,1.37,1.37,3.58,0,4.95-.66.66-1.55,1.03-2.48,1.03Z"/>
  <path class="st3" d="M204.74,65.11c-1.93,0-3.5-1.57-3.5-3.5,0-.93.37-1.82,1.03-2.47l6.44-6.44c1.38-1.35,3.6-1.33,4.95.05,1.33,1.36,1.33,3.54,0,4.9l-6.44,6.44c-.66.66-1.55,1.03-2.48,1.02Z"/>
  <path class="st4" d="M149.45,74.64c-7.63,3.63-13.38,10.29-15.85,18.36-.83,2.73.72,5.61,3.45,6.44.85.26,1.75.29,2.62.1,2.64-.58,5.25-1.3,7.81-2.15,4.82-1.62,8.32-5.81,9.05-10.84.37-2.5.48-5.03.33-7.54-.16-2.85-2.6-5.03-5.45-4.87-.68.04-1.34.21-1.95.51h0Z"/>
  <path class="st2" d="M173.5,302.02v-7.88h-7v7.87c-48.67-20.02-111.28-17.56-129.03-16.37,0,2.17-.04,4.56-.19,7.05,16.5-1.08,81.58-3.74,129.21,16.92v6.31h7v-6.31c46.61-20.16,110.9-16.43,129.36-14.84-.2-2.46-.29-4.85-.32-7.08-19.8-1.74-81.49-5.11-129.04,14.32h0Z"/>
  <path class="st5" d="M30.09,313.64h279.82c5,0,9.05,4.05,9.05,9.05h0v7.31H21.04v-7.31c0-5,4.05-9.05,9.05-9.05h0Z"/>
  <path class="st8" d="M30.09,310.14c-6.93,0-12.54,5.62-12.55,12.55v7.31c0,1.93,1.57,3.5,3.5,3.5h297.92c1.93,0,3.5-1.57,3.5-3.5v-7.31c0-6.93-5.62-12.54-12.55-12.55h-.4c-5.27-13.62-3-34.66-2.98-34.88.21-1.89-1.13-3.61-3.02-3.86-6.76-.9-13.24-1.53-19.47-1.95,17.79-20.22,15.5-51.5,15.38-52.94-.16-1.93-1.85-3.36-3.77-3.2-.81.07-1.57.41-2.16.98-.18.18-18.86,17.82-67.92,28.78-27.42,6.13-42,20.62-49.41,31.71-3.23,4.82-5.81,10.04-7.68,15.52-26.43-35.14-60.58-46.74-85.2-50.19-28.1-3.93-49.59,1.51-50.49,1.74-1.87.48-3,2.39-2.51,4.27.24.92.84,1.71,1.67,2.17,10.81,6.07,16.46,15.95,18.94,21.53-4.67.4-9.47.92-14.42,1.58-1.89.25-3.23,1.97-3.01,3.86.03.22,2.29,21.25-2.98,34.88h-.4,0ZM227.11,249.91c36.12-8.07,56.33-19.57,65.4-25.94-.38,10.98-3.13,32.48-17.92,45-52.32-1.69-84.48,12.76-98.55,21.13,4.71-11.96,17.56-32.71,51.07-40.19h0ZM173.5,300.17c7.45-5.4,48.37-31.71,125.79-22.25-.43,6.46-.83,20.7,2.82,32.22h-128.6v-9.97h-.01ZM42.56,247.16c13.27-1.89,26.75-1.91,40.02-.07,29.43,4.17,53.93,17.12,73.07,38.55-17.65-8.61-49.64-19.15-97.4-16.34-3.34-8.55-8.73-16.16-15.7-22.14h.01ZM40.71,277.92c77.43-9.46,118.35,16.86,125.79,22.25v9.97H37.88c3.65-11.52,3.26-25.76,2.83-32.22ZM309.91,317.14c3.06,0,5.54,2.48,5.55,5.55v3.81H24.54v-3.81c0-3.06,2.49-5.54,5.55-5.55h279.82Z"/>
  <path class="st7" d="M60.81,110.8c0,50.46,36.13,93.69,85.79,102.65l11.48,39.87c.42,1.47,1.76,2.5,3.29,2.53h.07c1.51,0,2.84-.96,3.32-2.39l13.07-39.13c57.17-7.03,97.82-59.07,90.8-116.25C261.6,40.91,209.56.26,152.39,7.28c-52.29,6.43-91.57,50.84-91.58,103.52ZM262.41,110.8c.18,50.02-37.74,91.97-87.53,96.81-1.37.14-2.54,1.07-2.97,2.37l-10.21,30.58-8.98-31.17c-.38-1.31-1.48-2.28-2.82-2.49-53.08-8.4-89.29-58.24-80.89-111.32C77.41,42.52,127.25,6.3,180.32,14.71c47.27,7.48,82.08,48.23,82.09,96.09h0Z"/>
  <path class="st7" d="M164,60.08c-23.41,0-42.4,18.96-42.41,42.37,0,10.29,3.74,20.24,10.53,27.98,3.6,4.18,6.12,9.19,7.33,14.57l1.51,6.46,1.3,18.93c.45,6.72,5.27,12.35,11.84,13.84,6.51,1.41,13.25,1.41,19.77,0,6.58-1.48,11.4-7.11,11.85-13.84l1.3-18.93,1.51-6.47c1.28-5.46,3.86-10.54,7.52-14.79,15.32-17.71,13.38-44.48-4.33-59.79-7.57-6.54-17.2-10.2-27.2-10.33h-.52ZM178.74,169.91c-.23,3.62-2.8,6.66-6.34,7.47-5.54,1.2-11.27,1.2-16.82,0-3.53-.81-6.11-3.85-6.34-7.47l-1-14.58c10.41,1.98,21.09,1.98,31.49,0l-1,14.58h0ZM199.39,102.47c0,8.5-3.06,16.71-8.62,23.14-4.41,5.11-7.51,11.21-9.05,17.78l-1.08,4.62c-10.97,2.4-22.32,2.4-33.29,0l-1.08-4.62c-1.48-6.5-4.53-12.54-8.89-17.59-12.89-14.69-11.43-37.05,3.26-49.94,6.46-5.67,14.76-8.79,23.36-8.79h.44c19.35.31,34.88,16.05,34.95,35.4Z"/>
</svg>