<svg id="SvgjsSvg1008" xmlns="http://www.w3.org/2000/svg" version="1.1" xmlns:xlink="http://www.w3.org/1999/xlink" xmlns:svgjs="http://svgjs.com/svgjs" width="22" height="22"><defs id="SvgjsDefs1009"></defs><path id="SvgjsPath1010" d="M561.68 722.81L561.31 722.43C562.56 721.05 563.3199999999999 719.17 563.3199999999999 717.16C563.3199999999999 712.64 559.68 709 555.16 709C550.64 709 547 712.64 547 717.16C547 721.68 550.64 725.3199999999999 555.16 725.3199999999999C557.17 725.3199999999999 559.05 724.56 560.43 723.31L560.81 723.68L560.81 724.6899999999999L567.0799999999999 730.9599999999999L568.9599999999999 729.0799999999999L562.6899999999999 722.81ZM549.51 717.16C549.51 714.02 552.02 711.51 555.16 711.51C558.3 711.51 560.81 714.02 560.81 717.16C560.81 720.3 558.3 722.81 555.16 722.81C552.02 722.81 549.51 720.3 549.51 717.16Z " fill="#0f1161" fill-opacity="1" transform="matrix(1,0,0,1,-547,-709)"></path></svg>