<svg id="SvgjsSvg1000" xmlns="http://www.w3.org/2000/svg" version="1.1" xmlns:xlink="http://www.w3.org/1999/xlink" xmlns:svgjs="http://svgjs.com/svgjs" width="25" height="15"><defs id="SvgjsDefs1001"></defs><path id="SvgjsPath1007" d="M615.71 37C618.4200000000001 37 620.6800000000001 35.01 620.9000000000001 32.44C621.2800000000001 32.15 621.8400000000001 31.83 622.5200000000001 31.83C623.1400000000001 31.84 623.7 32.17 624.08 32.46C624.3100000000001 35.01 626.57 37 629.2700000000001 37C631.6100000000001 37 633.6500000000001 35.52 634.2800000000001 33.38C634.84 33.2 635.09 32.52 634.9700000000001 31.500000000000004C634.9500000000002 31.350000000000005 634.9100000000002 31.230000000000004 634.8600000000001 31.130000000000003L634.8800000000001 31.130000000000003L630.5200000000001 23.71C630.3800000000001 23.470000000000002 630.0500000000001 23.27 629.7700000000001 23.25L626.8800000000001 23C626.5700000000002 22.98 626.3100000000001 23.2 626.3100000000001 23.5L626.3100000000001 24C626.3100000000001 24.3 626.57 24.51 626.8800000000001 24.48L629.9100000000001 24.150000000000002L631.95 27.78C631.1600000000001 27.32 630.24 27.060000000000002 629.2700000000001 27.060000000000002C626.7800000000001 27.060000000000002 624.6400000000001 28.76 624.1600000000001 31.060000000000002C623.6300000000001 30.78 623.09 30.630000000000003 622.5500000000001 30.62L622.4900000000001 30.62C621.9200000000001 30.62 621.3600000000001 30.76 620.8200000000002 31.05C620.3300000000002 28.76 618.1900000000002 27.060000000000002 615.7100000000002 27.060000000000002C614.7400000000001 27.060000000000002 613.8300000000002 27.320000000000004 613.0400000000002 27.770000000000003L615.0800000000002 24.150000000000002L618.1100000000001 24.48C618.4200000000001 24.52 618.6800000000002 24.3 618.6800000000002 24L618.6800000000002 23.5C618.6800000000002 23.2 618.4300000000002 22.97 618.1100000000001 23L615.2200000000001 23.25C614.9400000000002 23.27 614.6100000000001 23.48 614.4700000000001 23.71L610.1100000000001 31.130000000000003L610.1400000000001 31.130000000000003C610.0900000000001 31.230000000000004 610.0500000000001 31.35 610.0300000000001 31.500000000000004C609.9100000000001 32.5 610.1600000000001 33.18000000000001 610.7 33.370000000000005C611.33 35.52 613.37 37.00000000000001 615.71 37.00000000000001ZM633.22 32.1C633.22 34.17 631.44 35.86 629.27 35.86C627.09 35.86 625.31 34.17 625.31 32.1C625.31 30.020000000000003 627.0899999999999 28.330000000000002 629.27 28.330000000000002C631.4399999999999 28.330000000000002 633.22 30.020000000000003 633.22 32.1ZM619.74 32.1C619.74 34.17 617.96 35.86 615.78 35.86C613.61 35.86 611.8299999999999 34.17 611.8299999999999 32.1C611.8299999999999 30.020000000000003 613.6099999999999 28.330000000000002 615.78 28.330000000000002C617.9599999999999 28.330000000000002 619.74 30.020000000000003 619.74 32.1Z " fill="#ffffff" fill-opacity="1" transform="matrix(1,0,0,1,-610,-22)"></path></svg>